<mxfile host="app.diagrams.net" modified="2021-06-01T06:40:39.577Z" agent="5.0 (Windows NT 10.0; Win64; x64) AppleWebKit/537.36 (KHTML, like Gecko) Chrome/90.0.4430.212 Safari/537.36" etag="95vW4ctbMFBolL1Oou9B" version="14.7.3" type="github">
  <diagram id="O1pQsY1w89Ec_k0S8hrX" name="Page-1">
    <mxGraphModel dx="1102" dy="582" grid="1" gridSize="10" guides="1" tooltips="1" connect="1" arrows="1" fold="1" page="1" pageScale="1" pageWidth="827" pageHeight="1169" math="0" shadow="0">
      <root>
        <mxCell id="0" />
        <mxCell id="1" parent="0" />
        <mxCell id="S7XpwNcynMoJnfxHxaHq-4" value="" style="edgeStyle=orthogonalEdgeStyle;rounded=0;orthogonalLoop=1;jettySize=auto;html=1;" edge="1" parent="1" source="S7XpwNcynMoJnfxHxaHq-2">
          <mxGeometry relative="1" as="geometry">
            <mxPoint x="280" y="190" as="targetPoint" />
          </mxGeometry>
        </mxCell>
        <mxCell id="S7XpwNcynMoJnfxHxaHq-7" style="edgeStyle=orthogonalEdgeStyle;rounded=0;orthogonalLoop=1;jettySize=auto;html=1;exitX=0.5;exitY=1;exitDx=0;exitDy=0;entryX=0.5;entryY=0;entryDx=0;entryDy=0;sketch=1;shadow=0;" edge="1" parent="1" source="S7XpwNcynMoJnfxHxaHq-5" target="S7XpwNcynMoJnfxHxaHq-6">
          <mxGeometry relative="1" as="geometry" />
        </mxCell>
        <mxCell id="S7XpwNcynMoJnfxHxaHq-5" value="" style="ellipse;whiteSpace=wrap;html=1;strokeWidth=2;fillWeight=2;hachureGap=8;fillColor=#990000;fillStyle=dots;sketch=1;opacity=70;" vertex="1" parent="1">
          <mxGeometry x="75" y="190" width="90" height="50" as="geometry" />
        </mxCell>
        <mxCell id="S7XpwNcynMoJnfxHxaHq-6" value="嘻嘻嘻" style="rounded=1;whiteSpace=wrap;html=1;strokeWidth=2;fillWeight=4;hachureGap=8;hachureAngle=45;fillColor=#1ba1e2;sketch=1;opacity=60;" vertex="1" parent="1">
          <mxGeometry x="85" y="290" width="80" height="40" as="geometry" />
        </mxCell>
      </root>
    </mxGraphModel>
  </diagram>
</mxfile>
